<?xml version="1.0" encoding="utf-8"?>
<!-- Generator: Adobe Illustrator 16.0.4, SVG Export Plug-In . SVG Version: 6.00 Build 0)  -->
<!DOCTYPE svg PUBLIC "-//W3C//DTD SVG 1.1//EN" "http://www.w3.org/Graphics/SVG/1.1/DTD/svg11.dtd">
<svg version="1.1" id="Calque_1" xmlns="http://www.w3.org/2000/svg" xmlns:xlink="http://www.w3.org/1999/xlink" x="0px" y="0px"
	 width="50px" height="50px" viewBox="0 0 50 50" enable-background="new 0 0 50 50" xml:space="preserve">
<g>
	<g id="_x33_56._Play">
		<g>
			<path fill="#FFFFFF" d="M46.6,12.5c-6.9-12-22.2-16.1-34.1-9.1c-12,6.9-16.1,22.2-9.1,34.1c6.9,12,22.2,16.1,34.1,9.1
				C49.5,39.7,53.6,24.5,46.6,12.5z M35,42.3c-9.6,5.5-21.8,2.2-27.3-7.3C2.2,25.4,5.4,13.2,15,7.7c9.6-5.5,21.8-2.2,27.3,7.3
				C47.8,24.6,44.6,36.8,35,42.3z M34,24l-13.1-7.6c-1.2-0.7-2.2-0.1-2.1,1.2l0.1,15.2c0,1.4,1,1.9,2.2,1.2l13-7.5
				C35.2,25.8,35.2,24.7,34,24z"/>
		</g>
	</g>
</g>
</svg>
